<svg xmlns="http://www.w3.org/2000/svg" version="1.1" xmlns:xlink="http://www.w3.org/1999/xlink" xmlns:svgjs="http://svgjs.dev/svgjs" viewBox="0 0 800 400"><path d="M425.4480285644531,186.73834228515625C432.6164855957031,186.88768513997397,461.2903137207031,187.48505655924478,468.4587707519531,187.6343994140625C475.6272277832031,187.78374226888022,473.68577067057294,188.23177083333334,468.4587707519531,187.6343994140625C463.2317708333333,187.03702799479166,442.3237711588542,184.64754231770834,437.0967712402344,184.0501708984375C431.86977132161456,183.45279947916666,426.1947428385417,188.82914225260416,437.0967712402344,184.0501708984375C447.99879964192706,179.27119954427084,492.80165608723956,157.91517130533853,502.5089416503906,155.3763427734375C512.2162272135416,152.83751424153647,498.4766845703125,164.78494262695312,495.3404846191406,168.81719970703125C492.20428466796875,172.84945678710938,492.05494181315106,177.47908528645834,483.6917419433594,179.56988525390625C475.3285420735677,181.66068522135416,456.6606852213542,176.73236846923828,445.1612854003906,181.36199951171875C433.66188557942706,185.99163055419922,416.1887715657552,199.73118336995444,414.6953430175781,207.34767150878906C413.20191446940106,214.9641596476237,420.37037150065106,228.40501658121744,436.2007141113281,227.06092834472656C452.0310567220052,225.7168401082357,477.718022664388,201.52328491210938,509.6773986816406,199.28314208984375C541.6367746988932,197.04299926757812,610.4838511149088,199.88052368164062,627.9569702148438,213.6200714111328C645.4300893147787,227.359619140625,632.437255859375,269.4743118286133,614.51611328125,281.7204284667969C596.594970703125,293.96654510498047,536.1111145019531,286.2007141113281,520.4301147460938,287.0967712402344" fill="none" stroke-width="25" stroke="url(&quot;#SvgjsLinearGradient1000&quot;)" stroke-linecap="round"></path><defs><linearGradient id="SvgjsLinearGradient1000"><stop stop-color="hsl(37, 99%, 67%)" offset="0"></stop><stop stop-color="hsl(316, 73%, 52%)" offset="1"></stop></linearGradient></defs></svg>